# Blender v2.82 (sub 7) OBJ File: 'blue_component.blend'
# www.blender.org
mtllib r.mtl
o gripping_item_v1
v 0.453978 0.540000 0.379933
v 0.453978 0.600000 0.379933
v 0.455000 0.540000 0.372169
v 0.455000 0.600000 0.372169
v 0.453978 0.540000 0.364404
v 0.453978 0.600000 0.364404
v 0.450981 0.540000 0.357169
v 0.450981 0.600000 0.357169
v 0.446213 0.540000 0.350956
v 0.446213 0.600000 0.350956
v 0.440000 0.540000 0.346188
v 0.440000 0.600000 0.346188
v 0.432765 0.540000 0.343191
v 0.432765 0.600000 0.343191
v 0.425000 0.540000 0.342169
v 0.425000 0.600000 0.342169
v 0.417235 0.540000 0.343191
v 0.417235 0.600000 0.343191
v 0.410000 0.540000 0.346188
v 0.410000 0.600000 0.346188
v 0.403787 0.540000 0.350956
v 0.403787 0.600000 0.350956
v 0.399019 0.540000 0.357169
v 0.399019 0.600000 0.357169
v 0.396022 0.540000 0.364404
v 0.396022 0.600000 0.364404
v 0.395000 0.540000 0.372169
v 0.395000 0.600000 0.372169
v 0.396022 0.540000 0.379933
v 0.396022 0.600000 0.379933
v 0.399019 0.540000 0.387169
v 0.399019 0.600000 0.387169
v 0.403787 0.540000 0.393382
v 0.403787 0.600000 0.393382
v 0.410000 0.540000 0.398150
v 0.410000 0.600000 0.398150
v 0.417235 0.540000 0.401147
v 0.417235 0.600000 0.401147
v 0.425000 0.540000 0.402169
v 0.425000 0.600000 0.402169
v 0.432765 0.540000 0.401147
v 0.432765 0.600000 0.401147
v 0.440000 0.540000 0.398150
v 0.440000 0.600000 0.398150
v 0.446213 0.540000 0.393382
v 0.446213 0.600000 0.393382
v 0.450981 0.540000 0.387169
v 0.450981 0.600000 0.387169
v 0.203978 0.540000 0.379933
v 0.203978 0.600000 0.379933
v 0.205000 0.540000 0.372169
v 0.205000 0.600000 0.372169
v 0.203978 0.540000 0.364404
v 0.203978 0.600000 0.364404
v 0.200981 0.540000 0.357169
v 0.200981 0.600000 0.357169
v 0.196213 0.540000 0.350956
v 0.196213 0.600000 0.350956
v 0.190000 0.540000 0.346188
v 0.190000 0.600000 0.346188
v 0.182765 0.540000 0.343191
v 0.182765 0.600000 0.343191
v 0.175000 0.540000 0.342169
v 0.175000 0.600000 0.342169
v 0.167235 0.540000 0.343191
v 0.167235 0.600000 0.343191
v 0.160000 0.540000 0.346188
v 0.160000 0.600000 0.346188
v 0.153787 0.540000 0.350956
v 0.153787 0.600000 0.350956
v 0.149019 0.540000 0.357169
v 0.149019 0.600000 0.357169
v 0.146022 0.540000 0.364404
v 0.146022 0.600000 0.364404
v 0.145000 0.540000 0.372169
v 0.145000 0.600000 0.372169
v 0.146022 0.540000 0.379933
v 0.146022 0.600000 0.379933
v 0.149019 0.540000 0.387169
v 0.149019 0.600000 0.387169
v 0.153787 0.540000 0.393382
v 0.153787 0.600000 0.393382
v 0.160000 0.540000 0.398150
v 0.160000 0.600000 0.398150
v 0.167235 0.540000 0.401147
v 0.167235 0.600000 0.401147
v 0.175000 0.540000 0.402169
v 0.175000 0.600000 0.402169
v 0.182765 0.540000 0.401147
v 0.182765 0.600000 0.401147
v 0.190000 0.540000 0.398150
v 0.190000 0.600000 0.398150
v 0.196213 0.540000 0.393382
v 0.196213 0.600000 0.393382
v 0.200981 0.540000 0.387169
v 0.200981 0.600000 0.387169
v 0.328978 0.540000 0.163427
v 0.328978 0.600000 0.163427
v 0.330000 0.540000 0.155663
v 0.330000 0.600000 0.155663
v 0.328978 0.540000 0.147898
v 0.328978 0.600000 0.147898
v 0.325981 0.540000 0.140663
v 0.325981 0.600000 0.140663
v 0.321213 0.540000 0.134449
v 0.321213 0.600000 0.134449
v 0.315000 0.540000 0.129682
v 0.315000 0.600000 0.129682
v 0.307765 0.540000 0.126685
v 0.307765 0.600000 0.126685
v 0.300000 0.540000 0.125663
v 0.300000 0.600000 0.125663
v 0.292235 0.540000 0.126685
v 0.292235 0.600000 0.126685
v 0.285000 0.540000 0.129682
v 0.285000 0.600000 0.129682
v 0.278787 0.540000 0.134449
v 0.278787 0.600000 0.134449
v 0.274019 0.540000 0.140663
v 0.274019 0.600000 0.140663
v 0.271022 0.540000 0.147898
v 0.271022 0.600000 0.147898
v 0.270000 0.540000 0.155663
v 0.270000 0.600000 0.155663
v 0.271022 0.540000 0.163427
v 0.271022 0.600000 0.163427
v 0.274019 0.540000 0.170663
v 0.274019 0.600000 0.170663
v 0.278787 0.540000 0.176876
v 0.278787 0.600000 0.176876
v 0.285000 0.540000 0.181643
v 0.285000 0.600000 0.181643
v 0.292235 0.540000 0.184640
v 0.292235 0.600000 0.184640
v 0.300000 0.540000 0.185663
v 0.300000 0.600000 0.185663
v 0.307765 0.540000 0.184640
v 0.307765 0.600000 0.184640
v 0.315000 0.540000 0.181643
v 0.315000 0.600000 0.181643
v 0.321213 0.540000 0.176876
v 0.321213 0.600000 0.176876
v 0.325981 0.540000 0.170663
v 0.325981 0.600000 0.170663
v 0.000000 0.000000 0.000000
v 0.000000 -0.000000 0.600000
v 0.000000 0.600000 0.000000
v 0.000000 0.600000 0.600000
v 0.600000 0.000000 0.000000
v 0.600000 0.600000 0.000000
v 0.600000 -0.000000 0.600000
v 0.600000 0.600000 0.600000
vt 0.674138 0.699430
vt 0.674138 0.666096
vt 0.678452 0.699430
vt 0.678452 0.666096
vt 0.682765 0.699430
vt 0.682765 0.666096
vt 0.686785 0.699430
vt 0.686785 0.666096
vt 0.690237 0.699430
vt 0.690237 0.666096
vt 0.690237 0.532763
vt 0.690237 0.566096
vt 0.686785 0.532763
vt 0.686785 0.566096
vt 0.682765 0.532763
vt 0.682765 0.566096
vt 0.678452 0.532763
vt 0.678452 0.566096
vt 0.674138 0.532763
vt 0.674138 0.566096
vt 0.670118 0.532763
vt 0.670118 0.566096
vt 0.666667 0.532763
vt 0.666667 0.566096
vt 0.413522 0.666667
vt 0.413522 0.700000
vt 0.410070 0.666667
vt 0.410070 0.700000
vt 0.406051 0.666667
vt 0.406051 0.700000
vt 0.401737 0.666667
vt 0.401737 0.700000
vt 0.397423 0.666667
vt 0.397423 0.700000
vt 0.393404 0.666667
vt 0.393404 0.700000
vt 0.389952 0.666667
vt 0.389952 0.700000
vt 0.666667 0.532763
vt 0.666667 0.499430
vt 0.670118 0.532763
vt 0.670118 0.499430
vt 0.674138 0.532763
vt 0.674138 0.499430
vt 0.678452 0.532763
vt 0.678452 0.499430
vt 0.682765 0.532763
vt 0.682765 0.499430
vt 0.686785 0.532763
vt 0.686785 0.499430
vt 0.690237 0.532763
vt 0.690237 0.499430
vt 0.666667 0.699430
vt 0.666667 0.666096
vt 0.670119 0.699430
vt 0.670119 0.666096
vt 0.356236 0.667793
vt 0.352033 0.699715
vt 0.352033 0.666667
vt 0.347682 0.699715
vt 0.347682 0.666667
vt 0.343479 0.698589
vt 0.343479 0.667793
vt 0.339711 0.696413
vt 0.339711 0.669968
vt 0.336635 0.693337
vt 0.336635 0.673045
vt 0.334459 0.689569
vt 0.334459 0.676813
vt 0.333333 0.685366
vt 0.333333 0.681015
vt 0.356235 0.698589
vt 0.360004 0.669968
vt 0.360003 0.696413
vt 0.363080 0.673045
vt 0.363080 0.693337
vt 0.365255 0.676813
vt 0.365255 0.689569
vt 0.366381 0.681015
vt 0.366381 0.685366
vt 0.674138 0.666096
vt 0.674138 0.632763
vt 0.678452 0.666096
vt 0.678452 0.632763
vt 0.682765 0.666096
vt 0.682765 0.632763
vt 0.686785 0.666096
vt 0.686785 0.632763
vt 0.690237 0.666096
vt 0.690237 0.632763
vt 0.690237 0.599430
vt 0.686785 0.599430
vt 0.686785 0.632763
vt 0.682765 0.599430
vt 0.682765 0.632763
vt 0.678452 0.599430
vt 0.678452 0.632763
vt 0.674138 0.599430
vt 0.674138 0.632763
vt 0.670118 0.599430
vt 0.670118 0.632763
vt 0.666667 0.599430
vt 0.666667 0.632763
vt 0.389952 0.666667
vt 0.389952 0.700000
vt 0.386500 0.666667
vt 0.386500 0.700000
vt 0.382480 0.666667
vt 0.382480 0.700000
vt 0.378167 0.666667
vt 0.378167 0.700000
vt 0.373853 0.666667
vt 0.373853 0.700000
vt 0.369833 0.666667
vt 0.369833 0.700000
vt 0.366382 0.666667
vt 0.366382 0.700000
vt 0.666667 0.466096
vt 0.666667 0.432763
vt 0.670118 0.466096
vt 0.670118 0.432763
vt 0.674138 0.466096
vt 0.674138 0.432763
vt 0.678452 0.466096
vt 0.678452 0.432763
vt 0.682765 0.466096
vt 0.682765 0.432763
vt 0.686785 0.466096
vt 0.686785 0.432763
vt 0.690237 0.466096
vt 0.690237 0.432763
vt 0.666667 0.666096
vt 0.666667 0.632763
vt 0.670119 0.666096
vt 0.670119 0.632763
vt 0.667793 0.343479
vt 0.699715 0.347682
vt 0.666667 0.347682
vt 0.699715 0.352033
vt 0.666667 0.352033
vt 0.698589 0.356236
vt 0.667793 0.356235
vt 0.696413 0.360004
vt 0.669968 0.360003
vt 0.693337 0.363080
vt 0.673045 0.363080
vt 0.689569 0.365256
vt 0.676813 0.365255
vt 0.685366 0.366382
vt 0.681015 0.366382
vt 0.698589 0.343479
vt 0.669968 0.339711
vt 0.696413 0.339711
vt 0.673045 0.336635
vt 0.693337 0.336635
vt 0.676813 0.334459
vt 0.689569 0.334460
vt 0.681015 0.333333
vt 0.685366 0.333333
vt 0.674138 0.432763
vt 0.674138 0.399430
vt 0.678452 0.432763
vt 0.678452 0.399430
vt 0.682765 0.432763
vt 0.682765 0.399430
vt 0.686785 0.432763
vt 0.686785 0.399430
vt 0.690237 0.432763
vt 0.690237 0.399430
vt 0.690237 0.466096
vt 0.690237 0.499430
vt 0.686785 0.466096
vt 0.686785 0.499430
vt 0.682765 0.466096
vt 0.682765 0.499430
vt 0.678452 0.466096
vt 0.678452 0.499430
vt 0.674138 0.466096
vt 0.674138 0.499430
vt 0.670118 0.466096
vt 0.670118 0.499430
vt 0.666667 0.466096
vt 0.666667 0.499430
vt 0.690237 0.566096
vt 0.690237 0.599430
vt 0.686785 0.566096
vt 0.686785 0.599430
vt 0.682765 0.566096
vt 0.682765 0.599430
vt 0.678452 0.566096
vt 0.678452 0.599430
vt 0.674138 0.566096
vt 0.674138 0.599430
vt 0.670118 0.566096
vt 0.670118 0.599430
vt 0.666667 0.566096
vt 0.666667 0.599430
vt 0.413522 0.700000
vt 0.413522 0.666667
vt 0.416974 0.700000
vt 0.416974 0.666667
vt 0.420993 0.700000
vt 0.420993 0.666667
vt 0.425307 0.700000
vt 0.425307 0.666667
vt 0.429621 0.700000
vt 0.429621 0.666667
vt 0.433640 0.700000
vt 0.433640 0.666667
vt 0.437092 0.700000
vt 0.437092 0.666667
vt 0.666667 0.432763
vt 0.666667 0.399430
vt 0.670119 0.432763
vt 0.670119 0.399430
vt 0.669968 0.393052
vt 0.689569 0.367508
vt 0.673045 0.396128
vt 0.693337 0.369683
vt 0.676813 0.398304
vt 0.696413 0.372760
vt 0.681015 0.399430
vt 0.698589 0.376528
vt 0.685366 0.399430
vt 0.699715 0.380730
vt 0.689569 0.398304
vt 0.699715 0.385081
vt 0.693337 0.396128
vt 0.698589 0.389284
vt 0.696413 0.393052
vt 0.685366 0.366382
vt 0.667793 0.389284
vt 0.681015 0.366382
vt 0.666667 0.385081
vt 0.676813 0.367508
vt 0.666667 0.380730
vt 0.673045 0.369683
vt 0.667793 0.376528
vt 0.669968 0.372760
vt 1.000000 0.333333
vt 0.666667 0.333333
vt 1.000000 0.000000
vt 0.666667 0.000000
vt 0.333333 0.333333
vt 0.333333 0.666667
vt 0.000000 0.333333
vt 0.000000 0.666667
vt 0.000000 1.000000
vt 0.000000 0.666667
vt 0.333333 1.000000
vt 0.333333 0.666667
vt 0.333333 0.666667
vt 0.333333 0.333333
vt 0.666667 0.666667
vt 0.666667 0.333333
vt 0.130887 0.081124
vt 0.126573 0.080556
vt 0.000000 0.000000
vt 0.122259 0.081124
vt 0.118240 0.082789
vt 0.114788 0.085437
vt 0.112139 0.088889
vt 0.110474 0.092909
vt 0.109906 0.097222
vt 0.110474 0.101536
vt 0.000000 0.333333
vt 0.110474 0.231798
vt 0.109906 0.236111
vt 0.112139 0.227778
vt 0.112139 0.105556
vt 0.114788 0.224326
vt 0.114788 0.109007
vt 0.118240 0.111656
vt 0.118240 0.221677
vt 0.122259 0.113321
vt 0.122259 0.220012
vt 0.126573 0.113889
vt 0.126573 0.219444
vt 0.130887 0.113321
vt 0.130887 0.220012
vt 0.134906 0.111656
vt 0.134906 0.221677
vt 0.230188 0.166667
vt 0.230755 0.170980
vt 0.230755 0.162353
vt 0.138358 0.109007
vt 0.232420 0.158333
vt 0.141007 0.105556
vt 0.235069 0.154882
vt 0.142672 0.101536
vt 0.238521 0.152233
vt 0.143240 0.097222
vt 0.242541 0.150568
vt 0.142672 0.092909
vt 0.246854 0.150000
vt 0.141007 0.088889
vt 0.333333 0.000000
vt 0.138358 0.085437
vt 0.134906 0.082789
vt 0.110474 0.240425
vt 0.112139 0.244444
vt 0.114788 0.247896
vt 0.118240 0.250545
vt 0.122259 0.252210
vt 0.126573 0.252778
vt 0.130887 0.252210
vt 0.333333 0.333333
vt 0.134906 0.250545
vt 0.138358 0.247896
vt 0.141007 0.244444
vt 0.246854 0.183333
vt 0.251168 0.182765
vt 0.142672 0.240425
vt 0.242541 0.182765
vt 0.143240 0.236111
vt 0.238521 0.181100
vt 0.142672 0.231797
vt 0.235069 0.178452
vt 0.141007 0.227778
vt 0.232420 0.175000
vt 0.138358 0.224326
vt 0.255188 0.181100
vt 0.258639 0.178452
vt 0.261288 0.175000
vt 0.262953 0.170980
vt 0.263521 0.166667
vt 0.262953 0.162353
vt 0.261288 0.158333
vt 0.258639 0.154882
vt 0.255188 0.152233
vt 0.251168 0.150568
vt 0.333333 0.000000
vt 0.666667 0.000000
vt 0.666667 0.333333
vn -0.7092 0.6789 -0.1900
vn -0.6521 0.7377 -0.1747
vn -0.7343 0.6789 0.0000
vn -0.6751 0.7377 -0.0000
vn -0.7092 0.6789 0.1900
vn -0.6521 0.7377 0.1747
vn -0.6359 0.6789 0.3671
vn -0.5847 0.7377 0.3376
vn -0.5192 0.6789 0.5192
vn -0.4774 0.7377 0.4774
vn -0.3671 0.6789 0.6359
vn -0.3376 0.7377 0.5847
vn -0.1900 0.6789 0.7092
vn -0.1747 0.7377 0.6521
vn 0.0000 0.6789 0.7343
vn -0.0000 0.7377 0.6751
vn 0.1900 0.6789 0.7092
vn 0.1747 0.7377 0.6521
vn 0.3671 0.6789 0.6359
vn 0.3376 0.7377 0.5847
vn 0.5192 0.6789 0.5192
vn 0.4774 0.7377 0.4774
vn 0.6359 0.6789 0.3671
vn 0.5847 0.7377 0.3376
vn 0.7092 0.6789 0.1900
vn 0.6521 0.7377 0.1747
vn 0.7343 0.6789 -0.0000
vn 0.6751 0.7377 0.0000
vn 0.7092 0.6789 -0.1900
vn 0.6521 0.7377 -0.1747
vn 0.6359 0.6789 -0.3671
vn 0.5847 0.7377 -0.3376
vn 0.5192 0.6789 -0.5192
vn 0.4774 0.7377 -0.4774
vn 0.3671 0.6789 -0.6359
vn 0.3376 0.7377 -0.5847
vn 0.1900 0.6789 -0.7092
vn 0.1747 0.7377 -0.6521
vn 0.0000 0.6789 -0.7343
vn 0.0000 0.7377 -0.6751
vn -0.1900 0.6789 -0.7092
vn -0.1747 0.7377 -0.6521
vn -0.3671 0.6789 -0.6359
vn -0.3376 0.7377 -0.5847
vn -0.5192 0.6789 -0.5192
vn -0.4774 0.7377 -0.4774
vn -0.6359 0.6789 -0.3671
vn -0.5847 0.7377 -0.3376
vn -0.5774 -0.5774 -0.5774
vn -0.5774 -0.5774 0.5774
vn -0.5774 0.5774 -0.5774
vn -0.5773 0.5774 0.5773
vn 0.5774 -0.5774 -0.5774
vn 0.5774 0.5773 -0.5774
vn 0.5774 -0.5774 0.5774
vn 0.5773 0.5774 0.5773
usemtl red
s 1
f 1/1/1 2/2/2 3/3/3
f 3/3/3 2/2/2 4/4/4
f 3/3/3 4/4/4 5/5/5
f 5/5/5 4/4/4 6/6/6
f 5/5/5 6/6/6 7/7/7
f 7/7/7 6/6/6 8/8/8
f 7/7/7 8/8/8 9/9/9
f 9/9/9 8/8/8 10/10/10
f 9/11/9 10/12/10 11/13/11
f 11/13/11 10/12/10 12/14/12
f 11/13/11 12/14/12 13/15/13
f 13/15/13 12/14/12 14/16/14
f 13/15/13 14/16/14 15/17/15
f 15/17/15 14/16/14 16/18/16
f 15/17/15 16/18/16 17/19/17
f 17/19/17 16/18/16 18/20/18
f 17/19/17 18/20/18 19/21/19
f 19/21/19 18/20/18 20/22/20
f 19/21/19 20/22/20 21/23/21
f 21/23/21 20/22/20 22/24/22
f 21/25/21 22/26/22 23/27/23
f 23/27/23 22/26/22 24/28/24
f 23/27/23 24/28/24 25/29/25
f 25/29/25 24/28/24 26/30/26
f 25/29/25 26/30/26 27/31/27
f 27/31/27 26/30/26 28/32/28
f 27/31/27 28/32/28 29/33/29
f 29/33/29 28/32/28 30/34/30
f 29/33/29 30/34/30 31/35/31
f 31/35/31 30/34/30 32/36/32
f 31/35/31 32/36/32 33/37/33
f 33/37/33 32/36/32 34/38/34
f 33/39/33 34/40/34 35/41/35
f 35/41/35 34/40/34 36/42/36
f 35/41/35 36/42/36 37/43/37
f 37/43/37 36/42/36 38/44/38
f 37/43/37 38/44/38 39/45/39
f 39/45/39 38/44/38 40/46/40
f 39/45/39 40/46/40 41/47/41
f 41/47/41 40/46/40 42/48/42
f 41/47/41 42/48/42 43/49/43
f 43/49/43 42/48/42 44/50/44
f 43/49/43 44/50/44 45/51/45
f 45/51/45 44/50/44 46/52/46
f 45/53/45 46/54/46 47/55/47
f 47/55/47 46/54/46 48/56/48
f 47/55/47 48/56/48 1/1/1
f 1/1/1 48/56/48 2/2/2
f 5/57/5 25/58/25 3/59/3
f 3/59/3 25/58/25 27/60/27
f 3/59/3 27/60/27 1/61/1
f 1/61/1 27/60/27 29/62/29
f 1/61/1 29/62/29 47/63/47
f 47/63/47 29/62/29 31/64/31
f 47/63/47 31/64/31 45/65/45
f 45/65/45 31/64/31 33/66/33
f 45/65/45 33/66/33 43/67/43
f 43/67/43 33/66/33 35/68/35
f 43/67/43 35/68/35 41/69/41
f 41/69/41 35/68/35 37/70/37
f 41/69/41 37/70/37 39/71/39
f 25/58/25 5/57/5 23/72/23
f 23/72/23 5/57/5 7/73/7
f 23/72/23 7/73/7 21/74/21
f 21/74/21 7/73/7 9/75/9
f 21/74/21 9/75/9 19/76/19
f 19/76/19 9/75/9 11/77/11
f 19/76/19 11/77/11 17/78/17
f 17/78/17 11/77/11 13/79/13
f 17/78/17 13/79/13 15/80/15
f 49/81/1 50/82/2 51/83/3
f 51/83/3 50/82/2 52/84/4
f 51/83/3 52/84/4 53/85/5
f 53/85/5 52/84/4 54/86/6
f 53/85/5 54/86/6 55/87/7
f 55/87/7 54/86/6 56/88/8
f 55/87/7 56/88/8 57/89/9
f 57/89/9 56/88/8 58/90/10
f 57/91/9 58/90/10 59/92/11
f 59/92/11 58/90/10 60/93/12
f 59/92/11 60/93/12 61/94/13
f 61/94/13 60/93/12 62/95/14
f 61/94/13 62/95/14 63/96/15
f 63/96/15 62/95/14 64/97/16
f 63/96/15 64/97/16 65/98/17
f 65/98/17 64/97/16 66/99/18
f 65/98/17 66/99/18 67/100/19
f 67/100/19 66/99/18 68/101/20
f 67/100/19 68/101/20 69/102/21
f 69/102/21 68/101/20 70/103/22
f 69/104/21 70/105/22 71/106/23
f 71/106/23 70/105/22 72/107/24
f 71/106/23 72/107/24 73/108/25
f 73/108/25 72/107/24 74/109/26
f 73/108/25 74/109/26 75/110/27
f 75/110/27 74/109/26 76/111/28
f 75/110/27 76/111/28 77/112/29
f 77/112/29 76/111/28 78/113/30
f 77/112/29 78/113/30 79/114/31
f 79/114/31 78/113/30 80/115/32
f 79/114/31 80/115/32 81/116/33
f 81/116/33 80/115/32 82/117/34
f 81/118/33 82/119/34 83/120/35
f 83/120/35 82/119/34 84/121/36
f 83/120/35 84/121/36 85/122/37
f 85/122/37 84/121/36 86/123/38
f 85/122/37 86/123/38 87/124/39
f 87/124/39 86/123/38 88/125/40
f 87/124/39 88/125/40 89/126/41
f 89/126/41 88/125/40 90/127/42
f 89/126/41 90/127/42 91/128/43
f 91/128/43 90/127/42 92/129/44
f 91/128/43 92/129/44 93/130/45
f 93/130/45 92/129/44 94/131/46
f 93/132/45 94/133/46 95/134/47
f 95/134/47 94/133/46 96/135/48
f 95/134/47 96/135/48 49/81/1
f 49/81/1 96/135/48 50/82/2
f 53/136/5 73/137/25 51/138/3
f 51/138/3 73/137/25 75/139/27
f 51/138/3 75/139/27 49/140/1
f 49/140/1 75/139/27 77/141/29
f 49/140/1 77/141/29 95/142/47
f 95/142/47 77/141/29 79/143/31
f 95/142/47 79/143/31 93/144/45
f 93/144/45 79/143/31 81/145/33
f 93/144/45 81/145/33 91/146/43
f 91/146/43 81/145/33 83/147/35
f 91/146/43 83/147/35 89/148/41
f 89/148/41 83/147/35 85/149/37
f 89/148/41 85/149/37 87/150/39
f 73/137/25 53/136/5 71/151/23
f 71/151/23 53/136/5 55/152/7
f 71/151/23 55/152/7 69/153/21
f 69/153/21 55/152/7 57/154/9
f 69/153/21 57/154/9 67/155/19
f 67/155/19 57/154/9 59/156/11
f 67/155/19 59/156/11 65/157/17
f 65/157/17 59/156/11 61/158/13
f 65/157/17 61/158/13 63/159/15
f 97/160/1 98/161/2 99/162/3
f 99/162/3 98/161/2 100/163/4
f 99/162/3 100/163/4 101/164/5
f 101/164/5 100/163/4 102/165/6
f 101/164/5 102/165/6 103/166/7
f 103/166/7 102/165/6 104/167/8
f 103/166/7 104/167/8 105/168/9
f 105/168/9 104/167/8 106/169/10
f 105/170/9 106/171/10 107/172/11
f 107/172/11 106/171/10 108/173/12
f 107/172/11 108/173/12 109/174/13
f 109/174/13 108/173/12 110/175/14
f 109/174/13 110/175/14 111/176/15
f 111/176/15 110/175/14 112/177/16
f 111/176/15 112/177/16 113/178/17
f 113/178/17 112/177/16 114/179/18
f 113/178/17 114/179/18 115/180/19
f 115/180/19 114/179/18 116/181/20
f 115/180/19 116/181/20 117/182/21
f 117/182/21 116/181/20 118/183/22
f 117/184/21 118/185/22 119/186/23
f 119/186/23 118/185/22 120/187/24
f 119/186/23 120/187/24 121/188/25
f 121/188/25 120/187/24 122/189/26
f 121/188/25 122/189/26 123/190/27
f 123/190/27 122/189/26 124/191/28
f 123/190/27 124/191/28 125/192/29
f 125/192/29 124/191/28 126/193/30
f 125/192/29 126/193/30 127/194/31
f 127/194/31 126/193/30 128/195/32
f 127/194/31 128/195/32 129/196/33
f 129/196/33 128/195/32 130/197/34
f 129/198/33 130/199/34 131/200/35
f 131/200/35 130/199/34 132/201/36
f 131/200/35 132/201/36 133/202/37
f 133/202/37 132/201/36 134/203/38
f 133/202/37 134/203/38 135/204/39
f 135/204/39 134/203/38 136/205/40
f 135/204/39 136/205/40 137/206/41
f 137/206/41 136/205/40 138/207/42
f 137/206/41 138/207/42 139/208/43
f 139/208/43 138/207/42 140/209/44
f 139/208/43 140/209/44 141/210/45
f 141/210/45 140/209/44 142/211/46
f 141/212/45 142/213/46 143/214/47
f 143/214/47 142/213/46 144/215/48
f 143/214/47 144/215/48 97/160/1
f 97/160/1 144/215/48 98/161/2
f 101/216/5 121/217/25 99/218/3
f 99/218/3 121/217/25 123/219/27
f 99/218/3 123/219/27 97/220/1
f 97/220/1 123/219/27 125/221/29
f 97/220/1 125/221/29 143/222/47
f 143/222/47 125/221/29 127/223/31
f 143/222/47 127/223/31 141/224/45
f 141/224/45 127/223/31 129/225/33
f 141/224/45 129/225/33 139/226/43
f 139/226/43 129/225/33 131/227/35
f 139/226/43 131/227/35 137/228/41
f 137/228/41 131/227/35 133/229/37
f 137/228/41 133/229/37 135/230/39
f 121/217/25 101/216/5 119/231/23
f 119/231/23 101/216/5 103/232/7
f 119/231/23 103/232/7 117/233/21
f 117/233/21 103/232/7 105/234/9
f 117/233/21 105/234/9 115/235/19
f 115/235/19 105/234/9 107/236/11
f 115/235/19 107/236/11 113/237/17
f 113/237/17 107/236/11 109/238/13
f 113/237/17 109/238/13 111/239/15
f 145/240/49 146/241/50 147/242/51
f 147/242/51 146/241/50 148/243/52
f 149/244/53 145/245/49 150/246/54
f 150/246/54 145/245/49 147/247/51
f 151/248/55 149/249/53 152/250/56
f 152/250/56 149/249/53 150/251/54
f 146/252/50 151/253/55 148/254/52
f 148/254/52 151/253/55 152/255/56
f 6/256/6 4/257/4 152/258/56
f 152/258/56 4/257/4 2/259/2
f 152/258/56 2/259/2 48/260/48
f 48/260/48 46/261/46 152/258/56
f 152/258/56 46/261/46 44/262/44
f 152/258/56 44/262/44 42/263/42
f 42/263/42 40/264/40 152/258/56
f 152/258/56 40/264/40 38/265/38
f 152/258/56 38/265/38 148/266/52
f 148/266/52 38/265/38 90/267/42
f 148/266/52 90/267/42 88/268/40
f 90/267/42 38/265/38 92/269/44
f 92/269/44 38/265/38 36/270/36
f 92/269/44 36/270/36 94/271/46
f 94/271/46 36/270/36 34/272/34
f 94/271/46 34/272/34 32/273/32
f 94/271/46 32/273/32 96/274/48
f 96/274/48 32/273/32 30/275/30
f 96/274/48 30/275/30 50/276/2
f 50/276/2 30/275/30 28/277/28
f 50/276/2 28/277/28 52/278/4
f 52/278/4 28/277/28 26/279/26
f 52/278/4 26/279/26 54/280/6
f 54/280/6 26/279/26 24/281/24
f 54/280/6 24/281/24 56/282/8
f 56/282/8 24/281/24 136/283/40
f 56/282/8 136/283/40 134/284/38
f 136/283/40 24/281/24 138/285/42
f 138/285/42 24/281/24 22/286/22
f 138/285/42 22/286/22 140/287/44
f 140/287/44 22/286/22 20/288/20
f 140/287/44 20/288/20 142/289/46
f 142/289/46 20/288/20 18/290/18
f 142/289/46 18/290/18 144/291/48
f 144/291/48 18/290/18 16/292/16
f 144/291/48 16/292/16 98/293/2
f 98/293/2 16/292/16 14/294/14
f 98/293/2 14/294/14 100/295/4
f 100/295/4 14/294/14 12/296/12
f 100/295/4 12/296/12 150/297/54
f 150/297/54 12/296/12 10/298/10
f 150/297/54 10/298/10 8/299/8
f 8/299/8 6/256/6 150/297/54
f 150/297/54 6/256/6 152/258/56
f 88/268/40 86/300/38 148/266/52
f 148/266/52 86/300/38 84/301/36
f 148/266/52 84/301/36 82/302/34
f 82/302/34 80/303/32 148/266/52
f 148/266/52 80/303/32 78/304/30
f 148/266/52 78/304/30 76/305/28
f 76/305/28 74/306/26 148/266/52
f 148/266/52 74/306/26 147/307/51
f 147/307/51 74/306/26 72/308/24
f 147/307/51 72/308/24 70/309/22
f 70/309/22 68/310/20 147/307/51
f 147/307/51 68/310/20 124/311/28
f 147/307/51 124/311/28 122/312/26
f 68/310/20 66/313/18 124/311/28
f 124/311/28 66/313/18 126/314/30
f 126/314/30 66/313/18 64/315/16
f 126/314/30 64/315/16 128/316/32
f 128/316/32 64/315/16 62/317/14
f 128/316/32 62/317/14 130/318/34
f 130/318/34 62/317/14 60/319/12
f 130/318/34 60/319/12 132/320/36
f 132/320/36 60/319/12 58/321/10
f 132/320/36 58/321/10 134/284/38
f 134/284/38 58/321/10 56/282/8
f 122/312/26 120/322/24 147/307/51
f 147/307/51 120/322/24 118/323/22
f 147/307/51 118/323/22 116/324/20
f 116/324/20 114/325/18 147/307/51
f 147/307/51 114/325/18 112/326/16
f 147/307/51 112/326/16 150/297/54
f 150/297/54 112/326/16 110/327/14
f 150/297/54 110/327/14 108/328/12
f 108/328/12 106/329/10 150/297/54
f 150/297/54 106/329/10 104/330/8
f 150/297/54 104/330/8 102/331/6
f 102/331/6 100/295/4 150/297/54
f 151/332/55 146/333/50 149/244/53
f 149/244/53 146/333/50 145/334/49
